<svg width="100" height="100" viewBox="0 0 100 100" fill="none" xmlns="http://www.w3.org/2000/svg">
<defs>
  <linearGradient id="whoKnewGradient" x1="0%" y1="0%" x2="100%" y2="100%">
    <stop offset="0%" style="stop-color:#FF6B6B;stop-opacity:1" />
    <stop offset="100%" style="stop-color:#A6A39E;stop-opacity:1" />
  </linearGradient>
</defs>
<path d="M50 0C22.3858 0 0 22.3858 0 50C0 77.6142 22.3858 100 50 100C77.6142 100 100 77.6142 100 50C100 22.3858 77.6142 0 50 0ZM70.7107 70.7107C67.1327 74.2887 62.7305 77.0305 57.8209 78.7443C52.9113 80.4582 47.6249 81.0957 42.3787 80.6054C37.1325 80.1152 32.0487 78.5099 27.5101 75.9273C22.9715 73.3447 19.0982 69.8645 16.1731 65.7613C13.248 61.6581 11.3479 57.0459 10.5951 52.201C9.84223 47.356 10.2596 42.3751 11.8198 37.6321C13.38 32.8891 16.0494 28.5114 19.6274 24.9333C23.2054 21.3553 27.6075 18.6135 32.5171 16.8997C37.4267 15.1858 42.7131 14.5483 47.9593 15.0386C53.2055 15.5288 58.2893 17.1341 62.8279 19.7167C67.3665 22.2993 71.2398 25.7795 74.1649 29.8827C77.0899 33.9859 78.9901 38.5981 79.7429 43.443C80.4958 48.288 80.0784 53.2689 78.5182 58.0119C76.958 62.7549 74.2886 67.1326 70.7107 70.7107Z" fill="url(#whoKnewGradient)"/>
<text x="50%" y="50%" dominant-baseline="middle" text-anchor="middle" font-family="Poppins, sans-serif" font-size="20" font-weight="bold" fill="#F5F5F5">
  !?
</text>
</svg>
